<svg xmlns="http://www.w3.org/2000/svg" xml:space="preserve" style="enable-background:new 0 0 216.6735992 315" viewBox="0 0 216.6736 315"><linearGradient id="a" x1="0" x2="216.6736" y1="157.5" y2="157.5" gradientUnits="userSpaceOnUse"><stop offset="0" style="stop-color:#9cfbfd"/><stop offset="1" style="stop-color:#df86be"/></linearGradient><path d="M198.404 56.9907h-26.442c-6.7816 0-12.2791-5.4975-12.2791-12.279V18.2696C159.6829 8.1796 151.5033 0 141.4133 0H120.127c-10.09 0-18.2696 8.1796-18.2696 18.2696V39.556c0 10.09 8.1796 18.2696 18.2696 18.2696h26.442c6.7816 0 12.279 5.4975 12.279 12.279v174.7908c0 6.7815-5.4974 12.279-12.279 12.279H70.1047c-6.7815 0-12.279-5.4975-12.279-12.279v-26.4421c0-10.09-8.1796-18.2696-18.2696-18.2696H18.2696C8.1796 200.1837 0 208.3633 0 218.4533v21.2864c0 10.09 8.1796 18.2696 18.2696 18.2696h26.442c6.7816 0 12.2791 5.4975 12.2791 12.279v26.4421c0 10.09 8.1796 18.2696 18.2696 18.2696h66.153c10.09 0 18.2696-8.1796 18.2696-18.2696v-26.442c0-6.7816 5.4975-12.279 12.279-12.279h26.4421c10.09 0 18.2696-8.1797 18.2696-18.2697V75.2603c0-10.09-8.1796-18.2696-18.2696-18.2696z" style="fill:url(#a)"/></svg>